<?xml version="1.0" encoding="UTF-8"?>
<svg version="1.1" xmlns="http://www.w3.org/2000/svg" width="256" height="256">
<path d="M0 0 C0.60328125 0.28327148 1.2065625 0.56654297 1.828125 0.85839844 C14.69482597 6.97413603 26.54101163 15.16792549 36.43945312 25.43945312 C38.17006943 27.22359575 38.17006943 27.22359575 41 29.4375 C51.96055295 38.79963898 60.56317029 51.76267703 68 64 C68.44601563 64.65742187 68.89203125 65.31484375 69.3515625 65.9921875 C71.28582972 68.95280059 72.01520852 70.69063639 71.83984375 74.2578125 C70.90990821 78.40143224 69.29920174 81.57750237 67.0625 85.125 C66.46622803 86.09288452 66.46622803 86.09288452 65.85791016 87.08032227 C60.23814341 96.02703475 53.70145778 104.31917312 46.640625 112.171875 C45.50637786 113.43575039 44.39291505 114.71847668 43.296875 116.015625 C30.83417172 130.72386041 14.53788702 142.22596235 -3 150 C-4.04800781 150.49113281 -5.09601563 150.98226562 -6.17578125 151.48828125 C-13.56648212 154.80675489 -21.03331993 156.61449042 -29 158 C-30.05960938 158.185625 -31.11921875 158.37125 -32.2109375 158.5625 C-65.27088289 162.37973081 -95.1606515 153.56735344 -121.33007812 133.34277344 C-126.12519247 129.48705284 -130.576622 125.27107606 -135 121 C-135.65484375 120.38511719 -136.3096875 119.77023438 -136.984375 119.13671875 C-147.67746715 108.8605591 -156.08558572 96.31591435 -164.453125 84.1484375 C-166.06512666 81.82380319 -166.06512666 81.82380319 -168.5 79.25 C-170 77 -170 77 -169.85546875 74.3203125 C-168.8041922 70.24001538 -167.03641485 67.17073086 -164.8125 63.625 C-164.20184692 62.63101196 -164.20184692 62.63101196 -163.57885742 61.61694336 C-160.63040654 56.87109724 -157.46298999 52.38389591 -154 48 C-152.42852431 45.82556002 -150.85784274 43.65074792 -149.296875 41.46875 C-148.86890625 40.9840625 -148.4409375 40.499375 -148 40 C-147.34 40 -146.68 40 -146 40 C-145.73840088 39.41605469 -145.47680176 38.83210938 -145.20727539 38.23046875 C-133.55645986 16.70532201 -103.45761676 1.14190231 -81 -6 C-54.16043441 -12.89007108 -25.235928 -12.11099223 0 0 Z " fill="#222324" transform="translate(177,53)"/>
<path d="M0 0 C4.80164238 1.40446201 8.93227934 3.47950448 13.1875 6.0625 C14.17206177 6.65804687 14.17206177 6.65804687 15.17651367 7.265625 C21.22914297 11.00711626 26.65994559 15.29878645 32 20 C32.84046875 20.71929687 33.6809375 21.43859375 34.546875 22.1796875 C44.2639441 30.65949004 52.34651314 40.07631648 59.67578125 50.640625 C60.24280762 51.45648071 60.24280762 51.45648071 60.82128906 52.28881836 C61.66060117 53.50728119 62.4896114 54.73286769 63.31152344 55.96313477 C64.4841416 57.68229382 65.73713515 59.34600073 67 61 C69.58582128 61.58402133 69.58582128 61.58402133 72 61 C72.99 61 73.98 61 75 61 C60.60459586 91.50454687 32.70072124 118.39125896 2 132 C0.95199219 132.49113281 -0.09601563 132.98226562 -1.17578125 133.48828125 C-8.56648212 136.80675489 -16.03331993 138.61449042 -24 140 C-25.05960938 140.185625 -26.11921875 140.37125 -27.2109375 140.5625 C-60.27088289 144.37973081 -90.1606515 135.56735344 -116.33007812 115.34277344 C-121.12519247 111.48705284 -125.576622 107.27107606 -130 103 C-130.65484375 102.38511719 -131.3096875 101.77023438 -131.984375 101.13671875 C-143.13211609 90.42363729 -152.3418822 77.37269814 -160 64 C-158.41251953 63.46826172 -158.41251953 63.46826172 -156.79296875 62.92578125 C-152.52440603 61.0869003 -150.6011138 58.09950781 -148.3125 54.1875 C-135.49552272 33.72212273 -113.50981888 8.59450306 -89.56640625 1.25390625 C-89.04949219 1.17011719 -88.53257813 1.08632812 -88 1 C-88.845625 1.928125 -89.69125 2.85625 -90.5625 3.8125 C-105.57219994 21.40641714 -109.51988739 39.45046864 -108 62 C-106.00121747 77.69602323 -96.64997982 92.60331548 -84.31298828 102.33007812 C-77.14669526 107.57908224 -69.58748585 111.59799309 -61 114 C-59.75992188 114.35320312 -58.51984375 114.70640625 -57.2421875 115.0703125 C-43.84143821 118.34273463 -30.56669082 116.06438987 -18 111 C-16.93136719 110.5771875 -15.86273438 110.154375 -14.76171875 109.71875 C0.77648401 102.78601102 11.44283553 89.38411664 18 74 C24.04404067 55.98501058 23.67082754 37.99470552 15.375 20.8125 C12.31177237 14.73948153 8.68798028 9.78173614 3.8828125 4.91796875 C2 3 2 3 0 0 Z " fill="#F8F8F8" transform="translate(172,71)"/>
<path d="M0 0 C0.60328125 0.28327148 1.2065625 0.56654297 1.828125 0.85839844 C14.69482597 6.97413603 26.54101163 15.16792549 36.43945312 25.43945312 C38.17006943 27.22359575 38.17006943 27.22359575 41 29.4375 C51.96055295 38.79963898 60.56317029 51.76267703 68 64 C68.44601563 64.65742187 68.89203125 65.31484375 69.3515625 65.9921875 C71.42207328 69.16133665 72 70.98071728 72 74.8125 C71 78 71 78 69.25 79.4375 C66.63823583 80.09044104 64.68601935 80.28982884 62 80 C60.2265625 78.3828125 60.2265625 78.3828125 58.625 76.125 C58.02300781 75.29613281 57.42101562 74.46726562 56.80078125 73.61328125 C55.66753277 71.96871893 54.53920042 70.32074729 53.41796875 68.66796875 C38.79180944 47.20915108 19.82560912 29.69444955 -4 19 C-3.37351563 19.59167969 -2.74703125 20.18335937 -2.1015625 20.79296875 C-1.28429687 21.58316406 -0.46703125 22.37335938 0.375 23.1875 C1.18710938 23.96480469 1.99921875 24.74210937 2.8359375 25.54296875 C4.98859852 27.987055 6.00632706 29.92616557 7 33 C1.75463454 31.48192952 -3.44365664 29.86405154 -8.61254883 28.10131836 C-38.8500462 17.80762168 -70.92861624 19.92171258 -100 33 C-101.66340019 33.67477555 -103.32887267 34.34459504 -105 35 C-103.58319756 30.67953102 -101.46236215 27.99538801 -98.375 24.6875 C-97.55773437 23.80449219 -96.74046875 22.92148438 -95.8984375 22.01171875 C-95.27195312 21.34785156 -94.64546875 20.68398437 -94 20 C-117.77087714 30.70995564 -137.01245935 49.39697014 -151.7109375 70.67578125 C-152.08387939 71.21444824 -152.45682129 71.75311523 -152.84106445 72.30810547 C-153.66302056 73.50805403 -154.47287421 74.7163333 -155.27416992 75.93017578 C-158.61291903 80.86418212 -158.61291903 80.86418212 -162.5625 82.25 C-166 82 -166 82 -168.5 79.9375 C-170.3909914 76.2343085 -170.04106186 74.98836026 -169 71 C-167.77944515 68.42727583 -166.32446826 66.0356285 -164.8125 63.625 C-164.20184692 62.63101196 -164.20184692 62.63101196 -163.57885742 61.61694336 C-160.63040654 56.87109724 -157.46298999 52.38389591 -154 48 C-152.42852431 45.82556002 -150.85784274 43.65074792 -149.296875 41.46875 C-148.86890625 40.9840625 -148.4409375 40.499375 -148 40 C-147.34 40 -146.68 40 -146 40 C-145.73840088 39.41605469 -145.47680176 38.83210938 -145.20727539 38.23046875 C-133.55645986 16.70532201 -103.45761676 1.14190231 -81 -6 C-54.16043441 -12.89007108 -25.235928 -12.11099223 0 0 Z " fill="#616161" transform="translate(177,53)"/>
<path d="M0 0 C3.92422365 3.31518414 6.94094687 6.46507246 9.31640625 11.0625 C9.50390625 14.375 9.50390625 14.375 9.31640625 17.0625 C5.56954165 16.49250717 3.90414449 14.94787709 1.25390625 12.3125 C-7.74243387 4.21870533 -16.40251667 1.91875051 -28.29296875 2.51953125 C-36.59775716 3.30235967 -43.12054815 6.99344665 -48.74609375 13.0625 C-53.5037512 18.87337933 -55.2235733 23.99893162 -55.12109375 31.375 C-55.11424561 32.1275708 -55.10739746 32.8801416 -55.1003418 33.65551758 C-54.9316166 39.50149813 -53.97047335 44.12679228 -50.68359375 49.0625 C-50.32136719 49.63226563 -49.95914063 50.20203125 -49.5859375 50.7890625 C-46.45928357 55.09218622 -42.77382369 57.72970311 -37.68359375 59.0625 C-34.95813501 59.31001615 -32.34739893 59.47062777 -29.62109375 59.5 C-28.61212036 59.51522705 -28.61212036 59.51522705 -27.58276367 59.53076172 C-20.58883632 59.4093364 -14.66987406 57.04878031 -9.68359375 52.0625 C-5.88515923 45.90641647 -5.60123698 39.1414624 -6.68359375 32.0625 C-9.10074118 26.88174735 -12.57088469 23.58516904 -17.68359375 21.0625 C-23.13757828 20.25745707 -28.06524276 20.11052883 -32.87109375 22.9375 C-35.94452867 26.54083749 -36.03139697 29.18620051 -35.95703125 33.796875 C-35.53296824 37.31053991 -34.43144917 38.87830723 -31.68359375 41.0625 C-28.0155956 41.48021804 -28.0155956 41.48021804 -24.68359375 41.0625 C-24.35359375 39.4125 -24.02359375 37.7625 -23.68359375 36.0625 C-26.15859375 34.0825 -26.15859375 34.0825 -28.68359375 32.0625 C-27.80859375 28.1875 -27.80859375 28.1875 -26.68359375 27.0625 C-23.2489477 27.0625 -20.69435357 27.33837356 -17.8515625 29.375 C-15.38964427 31.86574632 -13.84053612 33.81968608 -13.39453125 37.3515625 C-13.74083754 42.28230437 -14.91710575 45.69248442 -18.68359375 49.0625 C-23.48324642 51.68872505 -27.23689158 52.73139325 -32.68359375 52.0625 C-38.56123802 50.07331638 -42.21594002 47.16199078 -45.68359375 42.0625 C-48.51831915 35.98808844 -48.60114215 29.32108049 -46.68359375 22.9375 C-44.1174416 16.87314988 -38.89016936 13.35313857 -33.37109375 10.125 C-24.2583776 7.49930213 -16.10955321 8.90218252 -7.68359375 13.0625 C-0.15184607 17.24026629 3.48711119 25.26529568 6.31640625 33.0625 C8.09290941 42.86927758 5.15432884 52.19613579 -0.30859375 60.375 C-3.91974173 64.84988312 -8.58826158 67.52694643 -13.68359375 70.0625 C-14.43253906 70.43890625 -15.18148437 70.8153125 -15.953125 71.203125 C-24.947859 74.03408563 -36.83293605 73.05070811 -45.36328125 69.3203125 C-55.90236617 63.60720586 -63.18172145 55.60361678 -66.68359375 44.0625 C-69.17476147 33.84704041 -68.49049434 23.43818846 -63.68359375 14.0625 C-61.90656129 11.16393985 -59.92928255 8.6112215 -57.68359375 6.0625 C-57.15894531 5.44503906 -56.63429688 4.82757813 -56.09375 4.19140625 C-42.50871515 -10.67222012 -15.92070318 -11.49442326 0 0 Z " fill="#1F83F5" transform="translate(157.68359375,92.9375)"/>
<path d="M0 0 C0.556875 0.66 1.11375 1.32 1.6875 2 C3.81740605 4.23122501 3.81740605 4.23122501 6.5625 4.25 C7.7690625 4.12625 7.7690625 4.12625 9 4 C9.99 4 10.98 4 12 4 C-2.39540414 34.50454687 -30.29927876 61.39125896 -61 75 C-62.57201172 75.73669922 -62.57201172 75.73669922 -64.17578125 76.48828125 C-71.56648212 79.80675489 -79.03331993 81.61449042 -87 83 C-88.58941406 83.2784375 -88.58941406 83.2784375 -90.2109375 83.5625 C-123.27088289 87.37973081 -153.1606515 78.56735344 -179.33007812 58.34277344 C-184.12519247 54.48705284 -188.576622 50.27107606 -193 46 C-193.65484375 45.38511719 -194.3096875 44.77023438 -194.984375 44.13671875 C-206.13211609 33.42363729 -215.3418822 20.37269814 -223 7 C-220.41210938 5.97460938 -220.41210938 5.97460938 -217.82421875 4.94921875 C-215.81056259 3.90142764 -214.52061292 2.67033481 -213 1 C-212.69449219 1.63164062 -212.38898438 2.26328125 -212.07421875 2.9140625 C-205.71448359 15.34689687 -196.5332239 25.88093553 -187 36 C-186.06994141 37.00933594 -186.06994141 37.00933594 -185.12109375 38.0390625 C-165.6269044 58.46929852 -138.15009778 72.66805473 -109.71069336 73.42236328 C-86.82117673 73.54454581 -65.80270677 67.20607864 -47 54 C-45.97132813 53.28585938 -44.94265625 52.57171875 -43.8828125 51.8359375 C-28.30004929 40.4441375 -4.07640868 19.93769555 0 0 Z " fill="#B0BEC5" transform="translate(235,128)"/>
<path d="M0 0 C0.71937744 0.23211182 1.43875488 0.46422363 2.17993164 0.70336914 C6.2665914 2.09777363 8.95483172 3.32266922 11.6875 6.8125 C12.24953125 7.51246094 12.8115625 8.21242188 13.390625 8.93359375 C13.92171875 9.61550781 14.4528125 10.29742187 15 11 C15.9766955 12.12714607 16.95557538 13.2524064 17.9375 14.375 C20 17 20 17 20 19 C14.75463454 17.48192952 9.55634336 15.86405154 4.38745117 14.10131836 C-25.8500462 3.80762168 -57.92861624 5.92171258 -87 19 C-88.66340019 19.67477555 -90.32887267 20.34459504 -92 21 C-90.59787748 16.77089533 -88.58624819 14.12217785 -85.5625 10.875 C-84.38880859 9.60269531 -84.38880859 9.60269531 -83.19140625 8.3046875 C-82.46824219 7.54414062 -81.74507812 6.78359375 -81 6 C-80.53980469 5.48912842 -80.07960938 4.97825684 -79.60546875 4.4519043 C-77.81029117 2.82843698 -76.40963751 2.22095128 -74.12109375 1.46484375 C-73.36376953 1.21283203 -72.60644531 0.96082031 -71.82617188 0.70117188 C-71.03791016 0.44916016 -70.24964844 0.19714844 -69.4375 -0.0625 C-68.67630859 -0.31837891 -67.91511719 -0.57425781 -67.13085938 -0.83789062 C-45.62453465 -7.8740221 -21.35076122 -7.3505976 0 0 Z " fill="#747474" transform="translate(164,67)"/>
<path d="M0 0 C0.66 0.33 1.32 0.66 2 1 C1.57589844 1.36609375 1.15179688 1.7321875 0.71484375 2.109375 C-4.90730427 7.2990501 -8.38424266 13.30700237 -12 20 C-12.495 19.01 -12.495 19.01 -13 18 C-23.4916523 24.20879552 -32.95390283 30.8288483 -42 39 C-42.95261719 39.85464844 -43.90523437 40.70929688 -44.88671875 41.58984375 C-46.55718529 43.09448295 -48.22221719 44.60520431 -49.87890625 46.125 C-51.85052427 47.86786676 -53.87115905 49.45526281 -56 51 C-54.46775385 45.99402812 -51.47212559 42.70935912 -48.0625 38.875 C-47.47984375 38.21411377 -46.8971875 37.55322754 -46.296875 36.87231445 C-32.87294451 21.77222053 -18.15949334 9.07974667 0 0 Z " fill="#AEBBC1" transform="translate(82,72)"/>
<path d="M0 0 C4.80164238 1.40446201 8.93227934 3.47950448 13.1875 6.0625 C13.84387451 6.45953125 14.50024902 6.8565625 15.17651367 7.265625 C21.22914297 11.00711626 26.65994559 15.29878645 32 20 C32.84046875 20.71929687 33.6809375 21.43859375 34.546875 22.1796875 C43.36662519 29.87642602 51.2522146 38.42692234 58 48 C57.505 48.99 57.505 48.99 57 50 C56.16339844 49.11699219 55.32679688 48.23398438 54.46484375 47.32421875 C43.067229 35.49434921 28.92891137 22.30963712 13 17 C11.640625 15.1796875 11.640625 15.1796875 10.25 12.875 C7.66879681 8.8151176 4.82660873 5.59111466 1.3203125 2.3125 C0.88460937 1.879375 0.44890625 1.44625 0 1 C0 0.67 0 0.34 0 0 Z " fill="#AEBAC1" transform="translate(172,71)"/>
<path d="M0 0 C0.66 0.33 1.32 0.66 2 1 C-3.28 6.28 -8.56 11.56 -14 17 C-14 14 -14 14 -12.0625 11.875 C-11.04193705 10.91637873 -10.02104697 9.95810572 -9 9 C-7.39180447 7.39987234 -5.78787582 5.79544858 -4.1875 4.1875 C-2.09375 2.09375 -2.09375 2.09375 0 0 Z " fill="#E9EBEC" transform="translate(37,112)"/>
</svg>
